<svg xmlns="http://www.w3.org/2000/svg" viewBox="0 0 64 64" fill="none">
  <defs>
    <linearGradient id="bowlFill" x1="12" y1="24" x2="52" y2="52" gradientUnits="userSpaceOnUse">
      <stop stop-color="#FFE9F3"/>
      <stop offset="1" stop-color="#FFBFD9"/>
    </linearGradient>
    <linearGradient id="foodFill" x1="19" y1="17" x2="45" y2="31" gradientUnits="userSpaceOnUse">
      <stop stop-color="#FFF2A6"/>
      <stop offset="0.55" stop-color="#FFC66A"/>
      <stop offset="1" stop-color="#93D789"/>
    </linearGradient>
  </defs>
  <path d="M17 28c3-8 27-8 30 0" stroke="#4C2A67" stroke-width="3.2" stroke-linecap="round"/>
  <path d="M13 29h38c-.9 12.3-7.6 20.5-19 20.5S13.9 41.3 13 29Z" fill="url(#bowlFill)" stroke="#4C2A67" stroke-width="3.2" stroke-linejoin="round"/>
  <path d="M18 33h28" stroke="white" stroke-width="3.5" stroke-linecap="round" opacity=".75"/>
  <path d="M21 27c3-6 19-7 23 0-7 3-16 3.3-23 0Z" fill="url(#foodFill)" stroke="#4C2A67" stroke-width="2.6" stroke-linejoin="round"/>
  <circle cx="24" cy="24" r="3.4" fill="#F373A7" stroke="#4C2A67" stroke-width="1.8"/>
  <circle cx="32" cy="22.5" r="3.4" fill="#FFE28A" stroke="#4C2A67" stroke-width="1.8"/>
  <circle cx="40" cy="24" r="3.4" fill="#9EE08F" stroke="#4C2A67" stroke-width="1.8"/>
  <path d="M20 41c3.1 2.2 7 3.4 12 3.4s8.9-1.2 12-3.4" stroke="#F59ABC" stroke-width="2.4" stroke-linecap="round" opacity=".7"/>
  <path d="M51 14l1.6 3.8 4 .5-3 2.6.8 4-3.4-2.2-3.4 2.2.8-4-3-2.6 4-.5L51 14Z" fill="#FFF4BC" stroke="#EBA24D" stroke-width="1.8" stroke-linejoin="round"/>
</svg>
