<svg xmlns="http://www.w3.org/2000/svg" viewBox="0 0 64 64" fill="none">
  <defs>
    <linearGradient id="heartFill" x1="17" y1="10" x2="47" y2="52" gradientUnits="userSpaceOnUse">
      <stop stop-color="#FF9CC6"/>
      <stop offset=".48" stop-color="#F36FA8"/>
      <stop offset="1" stop-color="#E85699"/>
    </linearGradient>
  </defs>
  <path d="M32 53.2S10 40.1 10 23.8c0-8.4 6.2-13.6 13.4-13.6 4.2 0 7.2 1.9 8.6 5.3 1.6-3.4 4.7-5.3 8.7-5.3 7.1 0 13.3 5.2 13.3 13.6 0 16.3-22 29.4-22 29.4Z" fill="url(#heartFill)" stroke="#4C2A67" stroke-width="3.2" stroke-linejoin="round"/>
  <path d="M20 18.2c-2.8 1.5-4.4 4-4.4 7" stroke="white" stroke-width="2.8" stroke-linecap="round" opacity=".7"/>
  <path d="M27.3 45.2c1.7 1.2 3.3 2.2 4.7 3 1.6-.9 3.3-2 5.2-3.4" stroke="#FFB8D6" stroke-width="2.5" stroke-linecap="round" opacity=".72"/>
  <path d="M49.5 39.5 51 43l3.6.5-2.7 2.4.7 3.6-3.1-2-3.1 2 .7-3.6-2.7-2.4L48 43l1.5-3.5Z" fill="#FFF2AE" stroke="#ECA24E" stroke-width="1.7" stroke-linejoin="round"/>
</svg>
