<svg xmlns="http://www.w3.org/2000/svg" viewBox="0 0 64 64" fill="none">
  <defs>
    <linearGradient id="pencilFill" x1="16" y1="47" x2="48" y2="15" gradientUnits="userSpaceOnUse">
      <stop stop-color="#FFB852"/>
      <stop offset=".48" stop-color="#FFE08B"/>
      <stop offset="1" stop-color="#FFF1B7"/>
    </linearGradient>
    <linearGradient id="eraserFill" x1="41" y1="9" x2="55" y2="24" gradientUnits="userSpaceOnUse">
      <stop stop-color="#FFD3E5"/>
      <stop offset="1" stop-color="#F373A7"/>
    </linearGradient>
  </defs>
  <path d="M14.5 47.8 18.6 34 42.3 10.3c1.1-1.1 2.8-1.1 3.9 0l7.5 7.5c1.1 1.1 1.1 2.8 0 3.9L30 45.4l-15.5 2.4Z" fill="url(#pencilFill)" stroke="#4C2A67" stroke-width="3.1" stroke-linejoin="round"/>
  <path d="m41 12 11 11" stroke="#4C2A67" stroke-width="3.1" stroke-linecap="round"/>
  <path d="m18.7 34.3 11 11" stroke="#4C2A67" stroke-width="3.1" stroke-linecap="round"/>
  <path d="m39 14.2 10.8 10.8 4-4c1.1-1.1 1.1-2.8 0-3.9l-7.5-7.5c-1.1-1.1-2.8-1.1-3.9 0l-3.4 4.6Z" fill="url(#eraserFill)" stroke="#4C2A67" stroke-width="3.1" stroke-linejoin="round"/>
  <path d="M23.2 35.4 43.8 14.8" stroke="white" stroke-width="2.5" stroke-linecap="round" opacity=".7"/>
  <path d="m14.5 47.8 3.3-10.9 7.6 7.7-10.9 3.2Z" fill="#FFF7E6" stroke="#4C2A67" stroke-width="3.1" stroke-linejoin="round"/>
  <path d="M51 42l1.4 3.2 3.4.4-2.5 2.2.6 3.4-2.9-1.8-2.9 1.8.6-3.4-2.5-2.2 3.4-.4L51 42Z" fill="#F7E9FF" stroke="#9E6ACD" stroke-width="1.7" stroke-linejoin="round"/>
</svg>
